# xmcd
#
# Track frame offsets:
#	150
#	14926
#	27121
#	39872
#	53199
#	67187
#	78438
#	93342
#	105437
#	125494
#	137644
#
# Disc length: 2013 seconds
# Revision: 0
# Processed by: cddbd v1.5.2PL0 Copyright (c) Steve Scherf et al.
# Submitted via: dBpowerAMP V12.0
#
DISCID=8f07db0b
DTITLE=Doyle Lawson and Quicksilver - Open Carefully, Message Inside
DYEAR=2014
DGENRE=Country
TTITLE0=Coming Soon
TTITLE1=It's Done
TTITLE2=Thank You Dear God
TTITLE3=Get On Board
TTITLE4=He Made The Tree
TTITLE5=Lead Me To That Fountain
TTITLE6=He's In Control
TTITLE7=Will You Go?
TTITLE8=O Far Country
TTITLE9=Climbing Upward
TTITLE10=I Sailed Back
EXTD=
EXTT0=
EXTT1=
EXTT2=
EXTT3=
EXTT4=
EXTT5=
EXTT6=
EXTT7=
EXTT8=
EXTT9=
EXTT10=
PLAYORDER=
